<mxfile host="app.diagrams.net" modified="2021-04-23T13:09:45.701Z" agent="5.0 (Windows NT 10.0; Win64; x64) AppleWebKit/537.36 (KHTML, like Gecko) Chrome/89.0.4389.128 Safari/537.36" etag="JvOH7_x_5tCmezYuQEVL" version="14.1.4" type="github">
  <diagram id="5fwCtaz2ddu6jSUksYz-" name="Page-1">
    <mxGraphModel dx="2249" dy="794" grid="1" gridSize="10" guides="1" tooltips="1" connect="1" arrows="1" fold="1" page="1" pageScale="1" pageWidth="827" pageHeight="1169" math="0" shadow="0">
      <root>
        <mxCell id="0" />
        <mxCell id="1" parent="0" />
        <mxCell id="5tYD8Vz2DLDcysNsbjCx-1" value="MUC" style="image;html=1;image=img/lib/clip_art/computers/Server_Rack_128x128.png" vertex="1" parent="1">
          <mxGeometry x="170" y="160" width="80" height="80" as="geometry" />
        </mxCell>
        <mxCell id="5tYD8Vz2DLDcysNsbjCx-2" value="VIE" style="image;html=1;image=img/lib/clip_art/computers/Server_Rack_128x128.png" vertex="1" parent="1">
          <mxGeometry x="330" y="160" width="80" height="80" as="geometry" />
        </mxCell>
        <mxCell id="5tYD8Vz2DLDcysNsbjCx-5" value="" style="endArrow=none;html=1;strokeWidth=3;" edge="1" parent="1" source="5tYD8Vz2DLDcysNsbjCx-1" target="5tYD8Vz2DLDcysNsbjCx-2">
          <mxGeometry width="50" height="50" relative="1" as="geometry">
            <mxPoint x="190" y="540" as="sourcePoint" />
            <mxPoint x="240" y="490" as="targetPoint" />
          </mxGeometry>
        </mxCell>
        <mxCell id="5tYD8Vz2DLDcysNsbjCx-9" value="HEL" style="image;html=1;image=img/lib/clip_art/computers/Server_128x128.png" vertex="1" parent="1">
          <mxGeometry x="90" y="300" width="80" height="80" as="geometry" />
        </mxCell>
        <mxCell id="5tYD8Vz2DLDcysNsbjCx-12" value="" style="endArrow=none;html=1;entryX=0.5;entryY=0;entryDx=0;entryDy=0;exitX=0.8;exitY=0.8;exitDx=0;exitDy=0;exitPerimeter=0;" edge="1" parent="1" source="5tYD8Vz2DLDcysNsbjCx-10" target="5tYD8Vz2DLDcysNsbjCx-2">
          <mxGeometry width="50" height="50" relative="1" as="geometry">
            <mxPoint x="-50" y="410" as="sourcePoint" />
            <mxPoint y="360" as="targetPoint" />
          </mxGeometry>
        </mxCell>
        <mxCell id="5tYD8Vz2DLDcysNsbjCx-13" value="" style="endArrow=none;html=1;entryX=0.5;entryY=0;entryDx=0;entryDy=0;exitX=0.31;exitY=0.8;exitDx=0;exitDy=0;exitPerimeter=0;" edge="1" parent="1" source="5tYD8Vz2DLDcysNsbjCx-10" target="5tYD8Vz2DLDcysNsbjCx-1">
          <mxGeometry width="50" height="50" relative="1" as="geometry">
            <mxPoint x="50" y="410" as="sourcePoint" />
            <mxPoint x="100" y="360" as="targetPoint" />
          </mxGeometry>
        </mxCell>
        <mxCell id="5tYD8Vz2DLDcysNsbjCx-14" value="NUE&lt;br&gt;(TEST)" style="image;html=1;image=img/lib/clip_art/computers/Server_128x128.png" vertex="1" parent="1">
          <mxGeometry x="250" y="300" width="80" height="80" as="geometry" />
        </mxCell>
        <mxCell id="5tYD8Vz2DLDcysNsbjCx-15" value="MAH&lt;br&gt;(TEST)" style="image;html=1;image=img/lib/clip_art/computers/Server_128x128.png" vertex="1" parent="1">
          <mxGeometry x="374" y="300" width="80" height="80" as="geometry" />
        </mxCell>
        <mxCell id="5tYD8Vz2DLDcysNsbjCx-16" value="" style="endArrow=none;html=1;entryX=0.25;entryY=0;entryDx=0;entryDy=0;exitX=0.5;exitY=1;exitDx=0;exitDy=0;strokeWidth=3;" edge="1" parent="1" source="5tYD8Vz2DLDcysNsbjCx-1" target="5tYD8Vz2DLDcysNsbjCx-14">
          <mxGeometry width="50" height="50" relative="1" as="geometry">
            <mxPoint x="130" y="240" as="sourcePoint" />
            <mxPoint x="440" y="380" as="targetPoint" />
          </mxGeometry>
        </mxCell>
        <mxCell id="5tYD8Vz2DLDcysNsbjCx-17" value="" style="endArrow=none;html=1;entryX=0.75;entryY=0;entryDx=0;entryDy=0;exitX=0.5;exitY=1;exitDx=0;exitDy=0;strokeWidth=3;" edge="1" parent="1" source="5tYD8Vz2DLDcysNsbjCx-2" target="5tYD8Vz2DLDcysNsbjCx-14">
          <mxGeometry width="50" height="50" relative="1" as="geometry">
            <mxPoint x="390" y="430" as="sourcePoint" />
            <mxPoint x="440" y="380" as="targetPoint" />
          </mxGeometry>
        </mxCell>
        <mxCell id="5tYD8Vz2DLDcysNsbjCx-18" value="" style="endArrow=none;html=1;entryX=0.75;entryY=0;entryDx=0;entryDy=0;exitX=0.25;exitY=1;exitDx=0;exitDy=0;strokeWidth=3;" edge="1" parent="1" source="5tYD8Vz2DLDcysNsbjCx-2" target="5tYD8Vz2DLDcysNsbjCx-9">
          <mxGeometry width="50" height="50" relative="1" as="geometry">
            <mxPoint x="-60" y="520" as="sourcePoint" />
            <mxPoint x="-10" y="470" as="targetPoint" />
          </mxGeometry>
        </mxCell>
        <mxCell id="5tYD8Vz2DLDcysNsbjCx-19" value="" style="endArrow=none;html=1;entryX=0.25;entryY=0;entryDx=0;entryDy=0;exitX=0.25;exitY=1;exitDx=0;exitDy=0;strokeWidth=3;" edge="1" parent="1" source="5tYD8Vz2DLDcysNsbjCx-1" target="5tYD8Vz2DLDcysNsbjCx-9">
          <mxGeometry width="50" height="50" relative="1" as="geometry">
            <mxPoint x="390" y="430" as="sourcePoint" />
            <mxPoint x="440" y="380" as="targetPoint" />
          </mxGeometry>
        </mxCell>
        <mxCell id="5tYD8Vz2DLDcysNsbjCx-20" value="" style="endArrow=none;html=1;entryX=0.75;entryY=1;entryDx=0;entryDy=0;exitX=0.25;exitY=0;exitDx=0;exitDy=0;strokeWidth=3;" edge="1" parent="1" source="5tYD8Vz2DLDcysNsbjCx-15" target="5tYD8Vz2DLDcysNsbjCx-1">
          <mxGeometry width="50" height="50" relative="1" as="geometry">
            <mxPoint x="350" y="550" as="sourcePoint" />
            <mxPoint x="260" y="520" as="targetPoint" />
          </mxGeometry>
        </mxCell>
        <mxCell id="5tYD8Vz2DLDcysNsbjCx-21" value="" style="endArrow=none;html=1;entryX=0.75;entryY=0;entryDx=0;entryDy=0;exitX=0.75;exitY=1;exitDx=0;exitDy=0;strokeWidth=3;" edge="1" parent="1" source="5tYD8Vz2DLDcysNsbjCx-2" target="5tYD8Vz2DLDcysNsbjCx-15">
          <mxGeometry width="50" height="50" relative="1" as="geometry">
            <mxPoint x="470" y="580" as="sourcePoint" />
            <mxPoint x="520" y="530" as="targetPoint" />
          </mxGeometry>
        </mxCell>
        <mxCell id="5tYD8Vz2DLDcysNsbjCx-25" value="" style="endArrow=none;html=1;entryX=0;entryY=0;entryDx=0;entryDy=0;exitX=0.16;exitY=0.55;exitDx=0;exitDy=0;exitPerimeter=0;strokeWidth=3;" edge="1" parent="1" source="5tYD8Vz2DLDcysNsbjCx-10" target="5tYD8Vz2DLDcysNsbjCx-9">
          <mxGeometry width="50" height="50" relative="1" as="geometry">
            <mxPoint x="125.20000000000005" y="156" as="sourcePoint" />
            <mxPoint x="-70" y="370" as="targetPoint" />
          </mxGeometry>
        </mxCell>
        <mxCell id="5tYD8Vz2DLDcysNsbjCx-28" value="" style="image;html=1;image=img/lib/clip_art/networking/Router_128x128.png" vertex="1" parent="1">
          <mxGeometry x="-78.40000000000009" y="410" width="80" height="80" as="geometry" />
        </mxCell>
        <mxCell id="5tYD8Vz2DLDcysNsbjCx-29" value="" style="image;html=1;image=img/lib/clip_art/networking/Wireless_Router_128x128.png" vertex="1" parent="1">
          <mxGeometry x="-80" y="220" width="80" height="80" as="geometry" />
        </mxCell>
        <mxCell id="5tYD8Vz2DLDcysNsbjCx-30" value="" style="points=[];aspect=fixed;html=1;align=center;shadow=0;dashed=0;image;image=img/lib/allied_telesis/wireless/Access_Point_Outdoor.svg;" vertex="1" parent="1">
          <mxGeometry x="19.999999999999957" y="520" width="25.8" height="99.6" as="geometry" />
        </mxCell>
        <mxCell id="5tYD8Vz2DLDcysNsbjCx-31" value="" style="endArrow=none;html=1;exitX=0;exitY=0.75;exitDx=0;exitDy=0;fillColor=#1ba1e2;entryX=1;entryY=0.75;entryDx=0;entryDy=0;strokeWidth=3;" edge="1" parent="1" source="5tYD8Vz2DLDcysNsbjCx-2" target="5tYD8Vz2DLDcysNsbjCx-29">
          <mxGeometry width="50" height="50" relative="1" as="geometry">
            <mxPoint x="220" y="540" as="sourcePoint" />
            <mxPoint x="10" y="360" as="targetPoint" />
          </mxGeometry>
        </mxCell>
        <mxCell id="5tYD8Vz2DLDcysNsbjCx-32" value="" style="endArrow=none;html=1;entryX=1;entryY=0.5;entryDx=0;entryDy=0;exitX=0;exitY=0.75;exitDx=0;exitDy=0;fillColor=#1ba1e2;strokeWidth=3;" edge="1" parent="1" source="5tYD8Vz2DLDcysNsbjCx-1" target="5tYD8Vz2DLDcysNsbjCx-29">
          <mxGeometry width="50" height="50" relative="1" as="geometry">
            <mxPoint x="240" y="600" as="sourcePoint" />
            <mxPoint x="290" y="550" as="targetPoint" />
          </mxGeometry>
        </mxCell>
        <mxCell id="5tYD8Vz2DLDcysNsbjCx-33" value="" style="points=[];aspect=fixed;html=1;align=center;shadow=0;dashed=0;image;image=img/lib/allied_telesis/wireless/Access_Point_Outdoor.svg;" vertex="1" parent="1">
          <mxGeometry x="-51.29999999999998" y="520" width="25.8" height="99.6" as="geometry" />
        </mxCell>
        <mxCell id="5tYD8Vz2DLDcysNsbjCx-34" value="" style="points=[];aspect=fixed;html=1;align=center;shadow=0;dashed=0;image;image=img/lib/allied_telesis/wireless/Access_Point_Outdoor.svg;" vertex="1" parent="1">
          <mxGeometry x="-110" y="510" width="25.8" height="99.6" as="geometry" />
        </mxCell>
        <mxCell id="5tYD8Vz2DLDcysNsbjCx-10" value="Internet" style="ellipse;shape=cloud;whiteSpace=wrap;html=1;fillColor=#dae8fc;strokeColor=#6c8ebf;" vertex="1" parent="1">
          <mxGeometry x="110" y="60" width="290" height="80" as="geometry" />
        </mxCell>
        <mxCell id="5tYD8Vz2DLDcysNsbjCx-35" value="" style="endArrow=none;html=1;exitX=0.25;exitY=1;exitDx=0;exitDy=0;strokeWidth=3;gradientColor=#97d077;fillColor=#d5e8d4;strokeColor=#82b366;" edge="1" parent="1" source="5tYD8Vz2DLDcysNsbjCx-28" target="5tYD8Vz2DLDcysNsbjCx-34">
          <mxGeometry width="50" height="50" relative="1" as="geometry">
            <mxPoint x="-200" y="480" as="sourcePoint" />
            <mxPoint x="-150" y="430" as="targetPoint" />
          </mxGeometry>
        </mxCell>
        <mxCell id="5tYD8Vz2DLDcysNsbjCx-36" value="" style="endArrow=none;html=1;exitX=0.5;exitY=1;exitDx=0;exitDy=0;strokeWidth=3;gradientColor=#97d077;fillColor=#d5e8d4;strokeColor=#82b366;" edge="1" parent="1" source="5tYD8Vz2DLDcysNsbjCx-28" target="5tYD8Vz2DLDcysNsbjCx-33">
          <mxGeometry width="50" height="50" relative="1" as="geometry">
            <mxPoint x="-210" y="450" as="sourcePoint" />
            <mxPoint x="-160" y="400" as="targetPoint" />
          </mxGeometry>
        </mxCell>
        <mxCell id="5tYD8Vz2DLDcysNsbjCx-37" value="" style="endArrow=none;html=1;exitX=0.75;exitY=1;exitDx=0;exitDy=0;strokeWidth=3;gradientColor=#97d077;fillColor=#d5e8d4;strokeColor=#82b366;" edge="1" parent="1" source="5tYD8Vz2DLDcysNsbjCx-28" target="5tYD8Vz2DLDcysNsbjCx-30">
          <mxGeometry width="50" height="50" relative="1" as="geometry">
            <mxPoint x="-230" y="440" as="sourcePoint" />
            <mxPoint x="-180" y="390" as="targetPoint" />
          </mxGeometry>
        </mxCell>
        <mxCell id="5tYD8Vz2DLDcysNsbjCx-38" value="" style="endArrow=none;html=1;entryX=0.75;entryY=1;entryDx=0;entryDy=0;exitX=0;exitY=0.25;exitDx=0;exitDy=0;fillColor=#1ba1e2;strokeWidth=3;" edge="1" parent="1" source="5tYD8Vz2DLDcysNsbjCx-9" target="5tYD8Vz2DLDcysNsbjCx-29">
          <mxGeometry width="50" height="50" relative="1" as="geometry">
            <mxPoint x="185" y="510" as="sourcePoint" />
            <mxPoint x="235" y="460" as="targetPoint" />
          </mxGeometry>
        </mxCell>
        <mxCell id="5tYD8Vz2DLDcysNsbjCx-39" value="" style="endArrow=none;html=1;entryX=0.25;entryY=0;entryDx=0;entryDy=0;exitX=0;exitY=1;exitDx=0;exitDy=0;fillColor=#1ba1e2;strokeWidth=3;" edge="1" parent="1" source="5tYD8Vz2DLDcysNsbjCx-1" target="5tYD8Vz2DLDcysNsbjCx-28">
          <mxGeometry width="50" height="50" relative="1" as="geometry">
            <mxPoint x="130" y="500" as="sourcePoint" />
            <mxPoint x="180" y="450" as="targetPoint" />
          </mxGeometry>
        </mxCell>
        <mxCell id="5tYD8Vz2DLDcysNsbjCx-40" value="" style="endArrow=none;html=1;exitX=0.75;exitY=0;exitDx=0;exitDy=0;entryX=0.75;entryY=1;entryDx=0;entryDy=0;fillColor=#1ba1e2;strokeWidth=3;" edge="1" parent="1" source="5tYD8Vz2DLDcysNsbjCx-28" target="5tYD8Vz2DLDcysNsbjCx-1">
          <mxGeometry width="50" height="50" relative="1" as="geometry">
            <mxPoint x="240" y="430" as="sourcePoint" />
            <mxPoint x="290" y="380" as="targetPoint" />
          </mxGeometry>
        </mxCell>
        <mxCell id="5tYD8Vz2DLDcysNsbjCx-41" value="" style="endArrow=none;html=1;exitX=1;exitY=0.25;exitDx=0;exitDy=0;entryX=0.5;entryY=1;entryDx=0;entryDy=0;fillColor=#1ba1e2;strokeWidth=3;" edge="1" parent="1" source="5tYD8Vz2DLDcysNsbjCx-28" target="5tYD8Vz2DLDcysNsbjCx-9">
          <mxGeometry width="50" height="50" relative="1" as="geometry">
            <mxPoint x="290" y="590" as="sourcePoint" />
            <mxPoint x="340" y="540" as="targetPoint" />
          </mxGeometry>
        </mxCell>
        <mxCell id="5tYD8Vz2DLDcysNsbjCx-42" value="" style="image;html=1;image=img/lib/clip_art/networking/Wireless_Router_128x128.png" vertex="1" parent="1">
          <mxGeometry x="240" y="519.6" width="80" height="80" as="geometry" />
        </mxCell>
        <mxCell id="5tYD8Vz2DLDcysNsbjCx-43" value="" style="image;html=1;image=img/lib/clip_art/networking/Router_128x128.png" vertex="1" parent="1">
          <mxGeometry x="461.5999999999999" y="420" width="80" height="80" as="geometry" />
        </mxCell>
        <mxCell id="5tYD8Vz2DLDcysNsbjCx-44" value="" style="points=[];aspect=fixed;html=1;align=center;shadow=0;dashed=0;image;image=img/lib/allied_telesis/wireless/Access_Point_Outdoor.svg;" vertex="1" parent="1">
          <mxGeometry x="560" y="530" width="25.8" height="99.6" as="geometry" />
        </mxCell>
        <mxCell id="5tYD8Vz2DLDcysNsbjCx-45" value="" style="points=[];aspect=fixed;html=1;align=center;shadow=0;dashed=0;image;image=img/lib/allied_telesis/wireless/Access_Point_Outdoor.svg;" vertex="1" parent="1">
          <mxGeometry x="488.70000000000005" y="530" width="25.8" height="99.6" as="geometry" />
        </mxCell>
        <mxCell id="5tYD8Vz2DLDcysNsbjCx-46" value="" style="points=[];aspect=fixed;html=1;align=center;shadow=0;dashed=0;image;image=img/lib/allied_telesis/wireless/Access_Point_Outdoor.svg;" vertex="1" parent="1">
          <mxGeometry x="430" y="520" width="25.8" height="99.6" as="geometry" />
        </mxCell>
        <mxCell id="5tYD8Vz2DLDcysNsbjCx-47" value="" style="endArrow=none;html=1;exitX=0.25;exitY=1;exitDx=0;exitDy=0;strokeWidth=3;gradientColor=#97d077;fillColor=#d5e8d4;strokeColor=#82b366;" edge="1" parent="1" source="5tYD8Vz2DLDcysNsbjCx-43" target="5tYD8Vz2DLDcysNsbjCx-46">
          <mxGeometry width="50" height="50" relative="1" as="geometry">
            <mxPoint x="340" y="490" as="sourcePoint" />
            <mxPoint x="390" y="440" as="targetPoint" />
          </mxGeometry>
        </mxCell>
        <mxCell id="5tYD8Vz2DLDcysNsbjCx-48" value="" style="endArrow=none;html=1;exitX=0.5;exitY=1;exitDx=0;exitDy=0;strokeWidth=3;gradientColor=#97d077;fillColor=#d5e8d4;strokeColor=#82b366;" edge="1" parent="1" source="5tYD8Vz2DLDcysNsbjCx-43" target="5tYD8Vz2DLDcysNsbjCx-45">
          <mxGeometry width="50" height="50" relative="1" as="geometry">
            <mxPoint x="330" y="460" as="sourcePoint" />
            <mxPoint x="380" y="410" as="targetPoint" />
          </mxGeometry>
        </mxCell>
        <mxCell id="5tYD8Vz2DLDcysNsbjCx-49" value="" style="endArrow=none;html=1;exitX=0.75;exitY=1;exitDx=0;exitDy=0;strokeWidth=3;gradientColor=#97d077;fillColor=#d5e8d4;strokeColor=#82b366;" edge="1" parent="1" source="5tYD8Vz2DLDcysNsbjCx-43" target="5tYD8Vz2DLDcysNsbjCx-44">
          <mxGeometry width="50" height="50" relative="1" as="geometry">
            <mxPoint x="310" y="450" as="sourcePoint" />
            <mxPoint x="360" y="400" as="targetPoint" />
          </mxGeometry>
        </mxCell>
        <mxCell id="5tYD8Vz2DLDcysNsbjCx-53" value="" style="endArrow=none;html=1;exitX=0.5;exitY=0;exitDx=0;exitDy=0;fillColor=#d80073;strokeColor=#A50040;strokeWidth=3;" edge="1" parent="1" source="5tYD8Vz2DLDcysNsbjCx-42">
          <mxGeometry width="50" height="50" relative="1" as="geometry">
            <mxPoint x="290" y="490" as="sourcePoint" />
            <mxPoint x="280" y="390" as="targetPoint" />
          </mxGeometry>
        </mxCell>
        <mxCell id="5tYD8Vz2DLDcysNsbjCx-54" value="" style="shape=image;html=1;verticalAlign=top;verticalLabelPosition=bottom;labelBackgroundColor=#ffffff;imageAspect=0;aspect=fixed;image=https://cdn4.iconfinder.com/data/icons/logos-and-brands/512/272_Raspberry_Pi_logo-128.png;rotation=-30;" vertex="1" parent="1">
          <mxGeometry x="400" y="320" width="28" height="28" as="geometry" />
        </mxCell>
        <mxCell id="5tYD8Vz2DLDcysNsbjCx-55" value="" style="endArrow=none;html=1;entryX=1;entryY=0.5;entryDx=0;entryDy=0;exitX=0.5;exitY=0;exitDx=0;exitDy=0;fillColor=#d80073;strokeColor=#A50040;strokeWidth=3;" edge="1" parent="1" source="5tYD8Vz2DLDcysNsbjCx-43" target="5tYD8Vz2DLDcysNsbjCx-15">
          <mxGeometry width="50" height="50" relative="1" as="geometry">
            <mxPoint x="680" y="290" as="sourcePoint" />
            <mxPoint x="730" y="240" as="targetPoint" />
          </mxGeometry>
        </mxCell>
        <mxCell id="5tYD8Vz2DLDcysNsbjCx-57" value="" style="endArrow=none;html=1;exitX=1;exitY=0.5;exitDx=0;exitDy=0;fillColor=#d80073;strokeColor=#A50040;entryX=0;entryY=0.5;entryDx=0;entryDy=0;strokeWidth=3;" edge="1" parent="1" source="5tYD8Vz2DLDcysNsbjCx-14" target="5tYD8Vz2DLDcysNsbjCx-15">
          <mxGeometry width="50" height="50" relative="1" as="geometry">
            <mxPoint x="290" y="529.5999999999999" as="sourcePoint" />
            <mxPoint x="290" y="400" as="targetPoint" />
          </mxGeometry>
        </mxCell>
        <mxCell id="5tYD8Vz2DLDcysNsbjCx-65" value="" style="image;html=1;image=img/lib/clip_art/networking/Wireless_Router_128x128.png" vertex="1" parent="1">
          <mxGeometry x="-190" y="120" width="80" height="80" as="geometry" />
        </mxCell>
        <mxCell id="5tYD8Vz2DLDcysNsbjCx-66" value="" style="image;html=1;image=img/lib/clip_art/networking/Wireless_Router_128x128.png" vertex="1" parent="1">
          <mxGeometry x="-200" y="310" width="80" height="80" as="geometry" />
        </mxCell>
        <mxCell id="5tYD8Vz2DLDcysNsbjCx-67" value="&lt;font color=&quot;#1a1a1a&quot;&gt;Wifi Mesh&lt;/font&gt;" style="ellipse;shape=cloud;whiteSpace=wrap;html=1;fillColor=#fff2cc;strokeColor=#d6b656;" vertex="1" parent="1">
          <mxGeometry x="-210" y="210" width="120" height="80" as="geometry" />
        </mxCell>
        <mxCell id="5tYD8Vz2DLDcysNsbjCx-68" value="" style="endArrow=none;html=1;strokeColor=#B09500;strokeWidth=3;entryX=0;entryY=0.5;entryDx=0;entryDy=0;exitX=0.96;exitY=0.7;exitDx=0;exitDy=0;exitPerimeter=0;fillColor=#e3c800;" edge="1" parent="1" source="5tYD8Vz2DLDcysNsbjCx-67" target="5tYD8Vz2DLDcysNsbjCx-29">
          <mxGeometry width="50" height="50" relative="1" as="geometry">
            <mxPoint x="-320" y="480" as="sourcePoint" />
            <mxPoint x="-270" y="430" as="targetPoint" />
          </mxGeometry>
        </mxCell>
        <mxCell id="5tYD8Vz2DLDcysNsbjCx-69" value="" style="endArrow=none;html=1;strokeColor=#B09500;strokeWidth=3;entryX=0.55;entryY=0.95;entryDx=0;entryDy=0;entryPerimeter=0;exitX=0.5;exitY=0;exitDx=0;exitDy=0;fillColor=#e3c800;" edge="1" parent="1" source="5tYD8Vz2DLDcysNsbjCx-66" target="5tYD8Vz2DLDcysNsbjCx-67">
          <mxGeometry width="50" height="50" relative="1" as="geometry">
            <mxPoint x="-350" y="510" as="sourcePoint" />
            <mxPoint x="-300" y="460" as="targetPoint" />
          </mxGeometry>
        </mxCell>
        <mxCell id="5tYD8Vz2DLDcysNsbjCx-70" value="" style="endArrow=none;html=1;strokeColor=#B09500;strokeWidth=3;entryX=0.625;entryY=0.2;entryDx=0;entryDy=0;entryPerimeter=0;exitX=0.75;exitY=1;exitDx=0;exitDy=0;fillColor=#e3c800;" edge="1" parent="1" source="5tYD8Vz2DLDcysNsbjCx-65" target="5tYD8Vz2DLDcysNsbjCx-67">
          <mxGeometry width="50" height="50" relative="1" as="geometry">
            <mxPoint x="-260" y="510" as="sourcePoint" />
            <mxPoint x="-210" y="460" as="targetPoint" />
          </mxGeometry>
        </mxCell>
      </root>
    </mxGraphModel>
  </diagram>
</mxfile>
